<svg width="10" height="20" viewBox="0 0 10 20" fill="none" xmlns="http://www.w3.org/2000/svg">
<path d="M0.855063 1.768V0.879999C0.855063 0.879999 0.919063 0.871999 1.04706 0.855999C1.19106 0.823999 1.35906 0.791999 1.55106 0.759999C1.75906 0.711999 1.96706 0.671999 2.17506 0.639999C2.38306 0.592 2.56706 0.559999 2.72706 0.543999C2.88706 0.511999 2.99106 0.495999 3.03906 0.495999C3.08706 0.495999 3.17506 0.551999 3.30306 0.663999C3.44706 0.775999 3.57506 0.895999 3.68706 1.024C3.81506 1.136 3.87906 1.224 3.87906 1.288L3.75906 6.712L3.87906 6.736C4.08706 6.576 4.31906 6.4 4.57506 6.208C4.84706 6.016 5.10306 5.832 5.34306 5.656C5.59906 5.48 5.81506 5.336 5.99106 5.224C6.16706 5.096 6.26306 5.032 6.27906 5.032C7.01506 5.032 7.63906 5.152 8.15106 5.392C8.66306 5.632 9.05506 6.048 9.32706 6.64C9.59906 7.232 9.73506 8.048 9.73506 9.088V15.328C9.73506 15.808 9.64706 16.312 9.47106 16.84C9.29506 17.384 9.03906 17.88 8.70306 18.328C8.38306 18.776 7.98306 19.112 7.50306 19.336L6.80706 18.76C7.03106 18.392 7.19106 18.016 7.28706 17.632C7.39906 17.264 7.47106 16.888 7.50306 16.504C7.53506 16.136 7.55106 15.776 7.55106 15.424V9.088C7.55106 8.32 7.45506 7.784 7.26306 7.48C7.08706 7.16 6.88706 6.976 6.66306 6.928C6.45506 6.864 6.28706 6.832 6.15906 6.832C6.09506 6.832 5.90306 6.896 5.58306 7.024C5.26306 7.152 4.93506 7.288 4.59906 7.432C4.26306 7.576 4.02306 7.68 3.87906 7.744V14.584L4.69506 14.944V15.832C4.69506 15.832 4.59106 15.856 4.38306 15.904C4.19106 15.936 3.95106 15.976 3.66306 16.024C3.39106 16.072 3.13506 16.112 2.89506 16.144C2.67106 16.192 2.53506 16.216 2.48706 16.216C2.43906 16.216 2.35106 16.16 2.22306 16.048C2.09506 15.936 1.97506 15.816 1.86306 15.688C1.75106 15.56 1.69506 15.472 1.69506 15.424V2.104L0.855063 1.768Z" fill="white"/>
</svg>
