<svg xmlns="http://www.w3.org/2000/svg" viewBox="0 0 100 95" fill="#e5e5e5">
  <path d="m50 92.215c-2.2539 0-4.3398-1.0156-5.7344-2.7891l-8.8789-11.301h-18.719c-6.3203 0-11.457-5.1406-11.457-11.457l-0.003907-50c0-6.3164 5.1406-11.457 11.457-11.457h66.668c6.3203 0 11.457 5.1406 11.457 11.457v50c0 6.3164-5.1406 11.457-11.457 11.457h-18.719l-8.8789 11.301c-1.3906 1.7734-3.4805 2.7891-5.7344 2.7891zm-33.332-80.758c-2.8711 0-5.207 2.3359-5.207 5.207v50c0 2.8711 2.3359 5.207 5.207 5.207h20.238c0.95703 0 1.8633 0.44141 2.457 1.1953l9.8203 12.496c0.54688 0.69531 1.0898 0.69531 1.6367 0l9.8203-12.496c0.59375-0.75391 1.5-1.1953 2.457-1.1953h20.238c2.8711 0 5.207-2.3359 5.207-5.207v-49.996c0-2.8711-2.3359-5.207-5.207-5.207zm45.832 50h-25c-4.0195 0-7.293-3.2695-7.293-7.293v-14.582c0-2.2812 1.0898-4.4648 2.918-5.832l12.496-9.3711c2.5781-1.9375 6.1758-1.9375 8.7578 0l12.496 9.3711c1.8242 1.3711 2.9141 3.5508 2.9141 5.832v14.582c0 4.0195-3.2695 7.293-7.293 7.293zm-12.5-32.293c-0.21875 0-0.44141 0.070313-0.62109 0.20703-0.003906 0-0.003906 0.003906-0.003906 0.003906l-12.5 9.375c-0.26172 0.19531-0.41797 0.50781-0.41797 0.83203v14.582c0 0.57422 0.46875 1.043 1.043 1.043h25c0.57422 0 1.043-0.46875 1.043-1.043v-14.582c0-0.32422-0.15625-0.63672-0.41406-0.83203l-12.504-9.375c-0.18359-0.13672-0.40625-0.21094-0.625-0.21094zm-2.5-2.2891h0.039062z"/>
</svg>
