<svg width="92" height="55" viewBox="0 0 92 55" fill="none" xmlns="http://www.w3.org/2000/svg">
<path d="M53.8948 33.033C53.6384 33.7333 53.3983 34.4116 53.1715 35.0782C52.8624 35.987 53.9475 36.7901 54.8023 36.3532C56.7931 35.3354 59.0142 34.6603 61.4611 34.3476C67.9686 33.5182 73.7784 29.2698 76.9163 23.8506C77.1348 23.4732 77.0641 22.9988 76.7587 22.6876L74.0403 19.9167C73.659 19.5281 73.6587 18.9058 74.0396 18.5168L77.1559 15.3336L79.8466 12.5863C80.787 11.6272 81.8251 10.0081 82.9219 7.74981C83.2675 7.03828 82.6597 6.25509 81.8844 6.41185C67.8977 9.23974 59.2023 18.4826 53.8948 33.033ZM81.6493 18.5139C81.2682 18.903 81.2685 19.5254 81.65 19.9141L83.2284 21.5225C83.4899 21.7889 83.5832 22.1786 83.4577 22.5301C80.5866 30.5687 72.641 38.4551 62.1284 39.7955C55.1608 40.6848 50.7311 45.4468 48.8368 54.0839C48.7343 54.551 48.3245 54.8903 47.8464 54.8903H44.4701C43.8535 54.8903 43.3815 54.3498 43.4803 53.7411C46.2121 36.9104 52.1336 0.875967 90.3237 0.0156825C91.0038 0.000363871 91.5083 0.665864 91.2897 1.31001C88.745 8.8105 86.2047 13.8601 83.662 16.4589L81.6493 18.5139Z" fill="url(#paint0_linear_316_4)"/>
<path d="M37.8313 33.033C38.0876 33.7333 38.3278 34.4116 38.5546 35.0782C38.8637 35.987 37.7785 36.7901 36.9238 36.3532C34.9329 35.3354 32.7119 34.6603 30.265 34.3476C23.7574 33.5182 17.9477 29.2698 14.8098 23.8506C14.5913 23.4732 14.662 22.9988 14.9673 22.6876L17.6858 19.9167C18.067 19.528 18.0674 18.9058 17.6865 18.5168L14.5702 15.3336L11.8795 12.5863C10.9391 11.6272 9.901 10.0081 8.80414 7.74981C8.45855 7.03828 9.06635 6.25509 9.84168 6.41185C23.8284 9.23974 32.5238 18.4826 37.8313 33.033ZM10.0768 18.5139C10.4579 18.903 10.4575 19.5254 10.0761 19.9141L8.49763 21.5225C8.23618 21.7889 8.14284 22.1786 8.26839 22.5301C11.1395 30.5687 19.0851 38.4551 29.5977 39.7955C36.5653 40.6848 40.995 45.4468 42.8893 54.0839C42.9918 54.551 43.4016 54.8903 43.8797 54.8903H47.256C47.8726 54.8903 48.3445 54.3498 48.2458 53.7411C45.514 36.9104 39.5925 0.875963 1.40233 0.0156823C0.722299 0.000363792 0.217805 0.665864 0.436345 1.31001C2.98105 8.8105 5.52134 13.8601 8.06403 16.4589L10.0768 18.5139Z" fill="url(#paint1_linear_316_4)"/>
<defs>
<linearGradient id="paint0_linear_316_4" x1="67.5098" y1="0" x2="67.5098" y2="54.8903" gradientUnits="userSpaceOnUse">
<stop stop-color="#ffffff"/>
<stop offset="1" stop-color="#ffffff"/>
</linearGradient>
<linearGradient id="paint1_linear_316_4" x1="24.2163" y1="0" x2="24.2163" y2="54.8903" gradientUnits="userSpaceOnUse">
<stop stop-color="#ffffff"/>
<stop offset="1" stop-color="#ffffff"/>
</linearGradient>
</defs>
</svg>
